<svg height="480pt" viewBox="0 0 480 480" width="480pt" xmlns="http://www.w3.org/2000/svg"><path d="m160 240v1.6875c1.140625 43.425781 36.558594 78.097656 80 78.3125 2.671875 0 5.34375-.136719 8-.40625 40.140625-4.242188 70.929688-37.558594 72-77.90625v-1.6875c0-44.183594-35.816406-80-80-80s-80 35.816406-80 80zm40.070312-49.9375c19.207032-15.332031 45.496094-18.3125 67.648438-7.667969 22.148438 10.644531 36.25 33.03125 36.28125 57.605469v1.359375c0 1.464844-.183594 2.90625-.3125 4.34375-.054688.6875-.0625 1.394531-.144531 2.082031-.152344 1.175782-.398438 2.320313-.605469 3.472656-.167969.910157-.28125 1.847657-.480469 2.742188s-.503906 1.808594-.753906 2.710938c-.304687 1.097656-.566406 2.21875-.917969 3.289062-.226562.664062-.511718 1.289062-.761718 1.945312-.472657 1.277344-.925782 2.574219-1.480469 3.816407-.152344.335937-.335938.636719-.488281.972656-.710938 1.523437-1.445313 3.035156-2.269532 4.488281-.183594.335938-.417968.640625-.609375.96875-7.078125 12.027344-17.847656 21.453125-30.703125 26.878906-.25.113282-.519531.1875-.800781.289063-7.515625 3.0625-15.554687 4.636719-23.671875 4.640625-34.699219-.144531-63.019531-27.796875-64-62.480469v-1.519531c-.058594-19.457031 8.8125-37.863281 24.070312-49.9375zm0 0"/><path d="m117 65.753906c-2.921875-2.34375-7.078125-2.34375-10 0l-40 32c-2.652344 2.121094-3.679688 5.6875-2.550781 8.894532 1.125 3.207031 4.152343 5.351562 7.550781 5.351562h8v32c0 4.417969 3.582031 8 8 8h48c4.417969 0 8-3.582031 8-8v-32h8c3.398438 0 6.425781-2.144531 7.550781-5.351562 1.128907-3.207032.101563-6.773438-2.550781-8.894532zm-5 16.484375 17.191406 13.761719h-34.398437zm16 53.761719h-32v-24h32zm0 0"/><path d="m208 254.863281v25.136719c0 4.417969 3.582031 8 8 8s8-3.582031 8-8v-25.136719c14.085938-3.636719 23.945312-16.316406 24-30.863281v-8c0-4.417969-3.582031-8-8-8s-8 3.582031-8 8v8c-.015625 5.691406-3.066406 10.941406-8 13.777344v-21.777344c0-4.417969-3.582031-8-8-8s-8 3.582031-8 8v21.777344c-4.933594-2.835938-7.984375-8.085938-8-13.777344v-8c0-4.417969-3.582031-8-8-8s-8 3.582031-8 8v8c.054688 14.546875 9.914062 27.226562 24 30.863281zm0 0"/><path d="m264 254.527344v25.472656c0 4.417969 3.582031 8 8 8s8-3.582031 8-8v-25.472656c9.554688-3.378906 15.957031-12.394532 16-22.527344 0-12.742188-9.601562-32-24-32s-24 19.257812-24 32c.042969 10.132812 6.445312 19.148438 16 22.527344zm8-38.527344c2.585938.351562 8 9.441406 8 16 0 4.417969-3.582031 8-8 8s-8-3.582031-8-8c0-6.558594 5.441406-15.648438 8-16zm0 0"/><path d="m392 136v8c0 4.417969 3.582031 8 8 8s8-3.582031 8-8v-8h8c4.417969 0 8-3.582031 8-8v-16c0-8.835938-7.164062-16-16-16h-1.753906l-4.964844-19.871094c-1.777344-7.128906-8.183594-12.128906-15.527344-12.128906h-35.507812c-7.34375 0-13.75 5-15.527344 12.128906l-4.964844 19.871094h-1.753906c-8.835938 0-16 7.164062-16 16v16c0 4.417969 3.582031 8 8 8h8v8c0 4.417969 3.582031 8 8 8s8-3.582031 8-8v-8zm-41.753906-56h35.507812l4 16h-43.507812zm-22.246094 32h80v8h-80zm0 0"/><path d="m390.105469 321.695312c31.191406-55.085937 89.894531-164.765624 89.894531-209.695312 0-61.855469-50.144531-112-112-112s-112 50.144531-112 112c.125 5.921875.84375 11.820312 2.136719 17.601562-12.011719-1.964843-24.261719-1.964843-36.273438 0 1.296875-5.78125 2.011719-11.679687 2.136719-17.601562 0-61.855469-50.144531-112-112-112s-112 50.144531-112 112c0 44.929688 58.695312 154.585938 89.894531 209.695312-18.007812 2.890626-33.894531 9.808594-33.894531 22.304688 0 16.574219 28.128906 24 56 24 24.382812 0 48.953125-5.679688 54.726562-18.191406 16.410157 31.542968 34.945313 61.984375 49.195313 84.269531-13.945313 2.507813-31.921875 8.320313-31.921875 21.921875 0 16.574219 28.128906 24 56 24s56-7.425781 56-24c0-13.601562-17.976562-19.414062-31.921875-21.921875 14.242187-22.277344 32.800781-52.71875 49.195313-84.269531 5.773437 12.511718 30.34375 18.191406 54.726562 18.191406 27.871094 0 56-7.425781 56-24 0-12.496094-15.886719-19.414062-33.894531-22.304688zm-22.105469-305.695312c52.996094.058594 95.941406 43.003906 96 96 0 45.425781-71.808594 174.007812-93.808594 212.320312l-2.191406 3.816407-2.160156-3.777344c-8.054688-14.023437-15.800782-27.894531-23.039063-41.296875.101563-.300781.167969-.558594.269531-.855469 1.34375-4.042969 2.539063-7.875 3.578126-11.503906.152343-.511719.28125-1 .421874-1.503906 1-3.589844 1.867188-7.007813 2.5625-10.199219.078126-.382812.144532-.742188.222657-1.121094.671875-3.199218 1.207031-6.269531 1.601562-9.09375 0-.210937 0-.402344.054688-.601562.320312-2.714844.484375-5.449219.488281-8.183594 0-3.046875-.128906-6.078125-.375-9.078125-.089844-1-.257812-1.976563-.367188-2.96875-.21875-1.992187-.417968-4-.746093-5.953125-.191407-1.167969-.472657-2.304688-.703125-3.457031-.34375-1.765625-.671875-3.542969-1.105469-5.277344-.304687-1.210937-.6875-2.402344-1.03125-3.585937-.464844-1.648438-.910156-3.304688-1.457031-4.925782-.40625-1.210937-.886719-2.402344-1.335938-3.578125-.582031-1.601562-1.152344-3.136719-1.800781-4.671875-.511719-1.191406-1.085937-2.351562-1.597656-3.527344-.6875-1.480468-1.367188-2.96875-2.121094-4.410156-.429687-.839844-.910156-1.644531-1.367187-2.46875 35.335937 14.382813 75.914062 1.878906 97.023437-29.902344s16.902344-74.035156-10.054687-101.027343c-26.960938-26.996094-69.210938-31.253907-101.015626-10.1875-31.808593 21.070312-44.367187 61.632812-30.023437 96.988281-1.257813-.695312-2.53125-1.375-3.816406-2.023438-1.289063-.648437-2.640625-1.28125-4-1.890624-1.363281-.605469-2.761719-1.230469-4.167969-1.796876-1.410156-.570312-2.792969-1.089843-4.210938-1.601562-.734374-.265625-1.4375-.578125-2.183593-.800781-2.0625-7.113281-3.253907-14.453125-3.542969-21.855469.058594-52.996094 43.003906-95.941406 96-96zm-64 96c0-35.347656 28.652344-64 64-64s64 28.652344 64 64-28.652344 64-64 64c-35.328125-.039062-63.960938-28.671875-64-64zm-64 32c9.035156-.011719 18.027344 1.277344 26.695312 3.832031 40.949219 12.003907 69.140626 49.496094 69.304688 92.167969-.050781 2.949219-.320312 5.890625-.800781 8.800781-1.925781 11.007813-4.828125 21.824219-8.679688 32.320313-18.75 53.199218-59.878906 119.878906-82.71875 154.863281-1.386719 2.105469-2.65625 4-3.800781 5.734375-1.136719-1.703125-2.398438-3.613281-3.785156-5.710938-22.855469-35.015624-64-101.71875-82.734375-154.886718-5.21875-13.152344-8.414063-27.015625-9.480469-41.121094 0-5.25.4375-10.488281 1.304688-15.664062 5.707031-33.597657 28.683593-61.703126 60.472656-73.984376 2.445312-.9375 4.941406-1.777343 7.488281-2.511718 8.679687-2.558594 17.683594-3.851563 26.734375-3.839844zm-128 32c-35.347656 0-64-28.652344-64-64s28.652344-64 64-64 64 28.652344 64 64c-.039062 35.328125-28.671875 63.960938-64 64zm0-160c52.996094.058594 95.941406 43.003906 96 96-.285156 7.394531-1.464844 14.722656-3.519531 21.832031-.738281.238281-1.433594.550781-2.152344.800781-1.433594.53125-2.851563 1.066407-4.257813 1.597657-1.382812.5625-2.757812 1.152343-4.109374 1.777343-1.351563.625-2.714844 1.25-4.039063 1.914063-1.328125.664063-2.546875 1.316406-3.800781 2.015625 14.316406-35.332031 1.761718-75.859375-30.023438-96.90625s-73.996094-16.785156-100.933594 10.1875-31.144531 69.1875-10.058593 100.945312c21.089843 31.757813 61.628906 44.261719 96.941406 29.898438-.460937.800781-.933594 1.601562-1.367187 2.472656-.742188 1.425782-1.40625 2.898438-2.09375 4.351563-.5625 1.203125-1.144532 2.402343-1.664063 3.59375-.648437 1.511719-1.203125 3.0625-1.777344 4.609375-.457031 1.214844-.945312 2.398437-1.359375 3.628906-.546875 1.601562-.984375 3.265625-1.449218 4.90625-.34375 1.199219-.734376 2.398438-1.039063 3.605469-.433594 1.738281-.753906 3.503906-1.105469 5.273437-.230468 1.152344-.511718 2.296875-.703125 3.457032-.320312 1.960937-.527343 3.949218-.746093 5.933593-.109376 1-.277344 1.984375-.367188 2.992188-.246094 3.035156-.375 6.066406-.375 9.113281.023438 2.726562.207031 5.449219.542969 8.152344 0 .207031 0 .398437.058593.609375.359376 2.8125.894532 5.863281 1.597657 9.085937.082031.382813.144531.746094.226562 1.136719.695313 3.199219 1.597657 6.574219 2.550781 10.144531.144532.535156.289063 1.054688.4375 1.597656 1.035157 3.601563 2.226563 7.417969 3.5625 11.417969.101563.320313.167969.582031.28125.902344-7.203124 13.402344-14.984374 27.273437-23.058593 41.320313l-2.160157 3.777343-2.199218-3.816406c-22.054688-38.367187-93.839844-166.914063-93.839844-212.328125.058594-52.996094 43.003906-95.941406 96-96zm-13.511719 320.703125.566407.984375c3.808593 6.570312 6.050781 10.402344 6.050781 10.402344 1.429687 2.425781 4.03125 3.917968 6.847656 3.933594-21.992187 0-35.378906-5.023438-39.199219-8 7.851563-4.503907 16.6875-7.019532 25.734375-7.320313zm13.511719 15.296875c2.804688 0 5.402344-1.46875 6.847656-3.871094l.328125-.542968.207031-.347657c.25-.414062.570313-.949219.984376-1.664062l.617187-1.046875 1.054687-1.800782 1.457032-2.496093 1.152344-1.984375.894531-1.542969c9.03125.304687 17.851562 2.808594 25.695312 7.296875-3.8125 2.976562-17.222656 8-39.238281 8zm22.0625-30.304688c3.617188-6.398437 7.148438-12.71875 10.59375-18.960937 3.421875 8.378906 7.199219 16.914063 11.3125 25.511719-6.921875-3.296875-14.308594-5.507813-21.90625-6.550782zm105.9375 142.304688c-21.992188 0-35.390625-5.015625-39.199219-8 7.554688-4.3125 16.023438-6.78125 24.710938-7.199219v.054688c1.214843 1.832031 2.3125 3.472656 3.28125 4.90625v.046875l2.296875 3.390625.398437.59375c.535157.800781.960938 1.414062 1.273438 1.863281l.253906.359375.367187.535156c1.496094 2.152344 3.949219 3.433594 6.570313 3.433594 2.617187 0 5.070313-1.28125 6.566406-3.433594l.390625-.558593.210938-.3125 1.34375-1.953126.335937-.496093c.632813-.933594 1.375-2.023438 2.253907-3.335938l.203124-.300781c.925782-1.378906 1.972657-2.9375 3.132813-4.683594l.074219-.109375c8.695312.414063 17.171875 2.882813 24.734375 7.199219-3.808594 2.984375-17.207031 8-39.199219 8zm95.34375-161.265625c3.445312 6.269531 6.976562 12.589844 10.59375 18.960937-7.597656 1.046876-14.984375 3.257813-21.90625 6.550782 4.097656-8.597656 7.878906-17.132813 11.3125-25.511719zm-6.542969 41.265625c7.84375-4.488281 16.664063-6.996094 25.695313-7.304688l.734375 1.273438 1.511719 2.605469 1.089843 1.859375c.464844.796875.886719 1.519531 1.265625 2.152344l.550782.949218.96875 1.601563.335937.558593.238281.402344c1.34375 2.480469 3.980469 3.980469 6.800782 3.863282h.007812c-22.015625.039062-35.425781-4.984376-39.199219-7.960938zm39.289063 8c2.816406-.015625 5.414062-1.511719 6.847656-3.9375l1.597656-2.796875.21875-.378906c.964844-1.648438 2.277344-3.910157 3.917969-6.734375l.800781-1.449219c9.054688.289063 17.902344 2.792969 25.765625 7.296875-3.8125 2.976562-17.199219 8-39.191406 8zm0 0"/></svg>